<?xml version="1.0" encoding="UTF-8" standalone="no"?>
<!-- Created with Inkscape (http://www.inkscape.org/) -->

<svg
   xmlns:dc="http://purl.org/dc/elements/1.1/"
   xmlns:cc="http://creativecommons.org/ns#"
   xmlns:rdf="http://www.w3.org/1999/02/22-rdf-syntax-ns#"
   xmlns:svg="http://www.w3.org/2000/svg"
   xmlns="http://www.w3.org/2000/svg"
   version="1.1"
   width="36"
   height="27"
   id="svg2">
  <defs
     id="defs4">
    <clipPath
       id="clipPath3935">
      <rect
         width="33.375"
         height="27.125"
         x="363.375"
         y="527.36218"
         id="rect3937"
         style="fill:#000000;fill-opacity:0.52403846" />
    </clipPath>
  </defs>
  <metadata
     id="metadata7">
    <rdf:RDF>
      <cc:Work
         rdf:about="">
        <dc:format>image/svg+xml</dc:format>
        <dc:type
           rdf:resource="http://purl.org/dc/dcmitype/StillImage" />
        <dc:title></dc:title>
      </cc:Work>
    </rdf:RDF>
  </metadata>
  <rect
     width="36.668537"
     height="27.425642"
     x="-0.53033197"
     y="-0.19835734"
     id="rect4091"
     style="fill:#ffffff;fill-opacity:1;stroke:none" />
  <rect
     width="10.00051"
     height="17.581364"
     x="3.1062191"
     y="6.5397029"
     id="rect3948"
     style="fill:none;stroke:#000000;stroke-width:0.99999994;stroke-linejoin:round;stroke-miterlimit:4;stroke-opacity:1;stroke-dasharray:none" />
  <rect
     width="10.00051"
     height="17.581364"
     x="13.030969"
     y="6.5065303"
     id="rect3948-7"
     style="fill:none;stroke:#000000;stroke-width:0.99999994;stroke-linejoin:round;stroke-miterlimit:4;stroke-opacity:1;stroke-dasharray:none" />
  <rect
     width="10.00051"
     height="17.581364"
     x="23.183001"
     y="6.5065303"
     id="rect3948-1"
     style="fill:none;stroke:#000000;stroke-width:0.99999994;stroke-linejoin:round;stroke-miterlimit:4;stroke-opacity:1;stroke-dasharray:none" />
  <rect
     width="10.076272"
     height="0.83337587"
     x="13.258252"
     y="1.5441558"
     id="rect3975"
     style="fill:none;stroke:#000000;stroke-width:1;stroke-linejoin:round;stroke-miterlimit:4;stroke-opacity:1;stroke-dasharray:none" />
  <rect
     width="3.1062191"
     height="2.9546962"
     x="16.667517"
     y="2.8321004"
     id="rect3977"
     style="fill:#000000;fill-opacity:1;stroke:#000000;stroke-width:1;stroke-linejoin:round;stroke-miterlimit:4;stroke-opacity:1;stroke-dasharray:none" />
  <text
     x="13.712821"
     y="19.802664"
     id="text3983"
     xml:space="preserve"
     style="font-size:10px;font-style:normal;font-weight:normal;line-height:125%;letter-spacing:0px;word-spacing:0px;fill:#000000;fill-opacity:1;stroke:none;font-family:Sans"><tspan
       x="13.712821"
       y="19.802664"
       id="tspan3985"
       style="font-size:14px">9</tspan></text>
  <text
     x="3.7798917"
     y="19.822838"
     id="text3983-2"
     xml:space="preserve"
     style="font-size:10px;font-style:normal;font-weight:normal;line-height:125%;letter-spacing:0px;word-spacing:0px;fill:#000000;fill-opacity:1;stroke:none;font-family:Sans"><tspan
       x="3.7798917"
       y="19.822838"
       id="tspan3985-1"
       style="font-size:14px">1</tspan></text>
  <text
     x="24.008196"
     y="24.217001"
     id="text3983-0"
     xml:space="preserve"
     style="font-size:10px;font-style:normal;font-weight:normal;line-height:125%;letter-spacing:0px;word-spacing:0px;fill:#000000;fill-opacity:1;stroke:none;font-family:Sans"><tspan
       x="24.008196"
       y="24.217001"
       id="tspan3985-8"
       style="font-size:14px">5</tspan></text>
  <path
     d="m 3.6356309,15.356761 0,-8.2579976 4.4320442,0 4.4320449,0 0,8.2579976 0,8.257997 -4.4320449,0 -4.4320442,0 0,-8.257997 z m 7.8034291,3.863833 0,-0.606092 -1.136422,0 -1.136422,0 0,-4.507805 0,-4.5078061 -0.738674,-5.1e-5 c -0.5249449,-3.7e-5 -1.0839288,0.06887 -1.9319167,0.238162 l -1.1932427,0.2382141 0,0.672418 c 0,0.658714 0.00347,0.6716 0.1704632,0.632259 0.4307446,-0.101479 2.0584154,-0.417296 2.1506793,-0.417296 0.085761,0 0.1032236,0.647241 0.1032236,3.825953 l 0,3.825952 -1.1364216,0 -1.1364217,0 0,0.606092 0,0.606092 2.992577,0 2.9925776,0 0,-0.606092 z"
     id="path4044"
     style="fill:#ffffff;stroke:none" />
  <path
     d="m 13.636141,15.280999 0,-8.2579971 4.432045,0 4.432044,0 0,8.2579971 0,8.257997 -4.432044,0 -4.432045,0 0,-8.257997 z m 4.708118,4.663651 c 1.514037,-0.320908 2.64303,-1.515785 3.10399,-3.285128 0.291307,-1.11815 0.269735,-3.125602 -0.04697,-4.371339 -0.166278,-0.654038 -0.590245,-1.477186 -0.98962,-1.921387 -1.187481,-1.3207641 -3.722614,-1.3088621 -4.940037,0.02319 -0.768608,0.84098 -1.058575,1.971175 -0.846664,3.300021 0.169985,1.065938 0.737902,1.880513 1.610109,2.309413 1.255978,0.617616 2.784226,0.454274 3.674634,-0.392751 0.17473,-0.166216 0.31769,-0.277863 0.31769,-0.248104 0,0.02976 -0.05204,0.352556 -0.115656,0.717327 -0.237215,1.360291 -0.916125,2.318072 -1.831828,2.584274 -0.741259,0.21549 -1.726205,0.141169 -2.617221,-0.197488 -0.218718,-0.08313 -0.406193,-0.151164 -0.41661,-0.151185 -0.01042,-2.1e-5 -0.01894,0.301399 -0.01894,0.669822 l 0,0.669861 0.321986,0.09734 c 0.975796,0.295006 1.992168,0.366322 2.795141,0.196128 z"
     id="path4046"
     style="fill:#a0a0a0;stroke:none" />
  <path
     d="m 17.272691,15.105722 c -0.145841,-0.04623 -0.425097,-0.24367 -0.62057,-0.438764 -0.427915,-0.427088 -0.608449,-0.952993 -0.608449,-1.772444 0,-1.045766 0.390159,-1.808129 1.101618,-2.152541 0.4281,-0.20724 1.245799,-0.21466 1.684738,-0.01529 0.399444,0.181433 0.827901,0.687781 0.993954,1.17465 0.179064,0.525014 0.175124,1.472694 -0.0084,2.011536 -0.174903,0.513638 -0.724466,1.091628 -1.150379,1.209887 -0.367268,0.101976 -1.043159,0.09371 -1.392549,-0.01704 z"
     id="path4048"
     style="fill:#ffffff;stroke:none" />
  <path
     d="m 13.636141,15.280999 0,-8.2579971 4.432045,0 4.432044,0 0,8.2579971 0,8.257997 -4.432044,0 -4.432045,0 0,-8.257997 z m 4.630048,4.697301 c 1.146142,-0.212524 2.221291,-1.069093 2.778898,-2.213943 0.502748,-1.032219 0.583513,-1.469227 0.577974,-3.12733 -0.0057,-1.700638 -0.11643,-2.35576 -0.550723,-3.257742 -0.638865,-1.326861 -1.677817,-2.0076781 -3.063788,-2.0076781 -1.369712,0 -2.532347,0.6702761 -3.075044,1.7728071 -0.292229,0.593688 -0.38408,1.004339 -0.386375,1.72743 -0.0062,1.94138 0.984021,3.180122 2.778938,3.476514 0.857978,0.141676 1.813045,-0.09745 2.461247,-0.616245 0.153815,-0.123106 0.298708,-0.22383 0.321986,-0.22383 0.145401,0 -0.166717,1.257021 -0.461704,1.859464 -0.272213,0.555931 -0.878093,1.112796 -1.364339,1.253966 -0.587847,0.170666 -1.620008,0.121476 -2.336394,-0.111345 -0.33335,-0.108338 -0.63294,-0.197412 -0.665755,-0.197944 -0.03281,-5.3e-4 -0.04986,0.312242 -0.03788,0.695052 l 0.02178,0.696021 0.378808,0.09971 c 0.937575,0.246786 1.892044,0.310516 2.622369,0.175095 l 0,0 z"
     id="path4050"
     style="fill:#ffffff;stroke:none" />
  <path
     d="m 23.712413,15.280999 0,-8.2579971 4.469925,0 4.469925,0 0,8.2579971 0,8.257997 -0.949472,0 -0.949473,0 0.29914,-0.397747 c 0.473571,-0.62968 0.644667,-1.222637 0.639424,-2.216023 -0.0034,-0.644765 -0.03994,-0.931677 -0.161459,-1.267722 -0.344104,-0.951607 -1.028625,-1.635932 -1.965929,-1.965368 -0.74405,-0.261512 -1.937187,-0.308985 -2.586471,-0.10291 -0.157499,0.04999 -0.159391,0.03614 -0.159391,-1.1667 l 0,-1.217288 2.08344,0 2.083439,0 0,-0.606092 0,-0.606091 -2.765292,0 -2.765293,0 0,2.575889 c 0,1.416739 0.02812,2.575889 0.06249,2.575889 0.03437,0 0.315635,-0.09042 0.625032,-0.200929 0.487792,-0.17423 0.688376,-0.201915 1.509558,-0.208344 0.817413,-0.0064 0.994945,0.01475 1.297218,0.154512 0.863618,0.399323 1.303634,1.099603 1.302578,2.073035 -6.82e-4,0.629305 -0.117548,0.983759 -0.471829,1.431076 -0.739861,0.93415 -2.624741,1.087736 -4.293278,0.349829 l -0.410578,-0.181576 0,0.48828 0,0.48828 -0.681853,0 -0.681853,0 0,-8.257997 0,0 z"
     id="path4052"
     style="fill:#ffffff;stroke:none" />
</svg>
