<?xml version="1.0" encoding="UTF-8" standalone="no"?>
<!-- Created with Inkscape (http://www.inkscape.org/) -->

<svg
   xmlns:dc="http://purl.org/dc/elements/1.1/"
   xmlns:cc="http://creativecommons.org/ns#"
   xmlns:rdf="http://www.w3.org/1999/02/22-rdf-syntax-ns#"
   xmlns:svg="http://www.w3.org/2000/svg"
   xmlns="http://www.w3.org/2000/svg"
   version="1.1"
   width="36"
   height="27"
   id="svg2">
  <defs
     id="defs4">
    <clipPath
       id="clipPath3935">
      <rect
         width="33.375"
         height="27.125"
         x="363.375"
         y="527.36218"
         id="rect3937"
         style="fill:#000000;fill-opacity:0.52403846" />
    </clipPath>
  </defs>
  <metadata
     id="metadata7">
    <rdf:RDF>
      <cc:Work
         rdf:about="">
        <dc:format>image/svg+xml</dc:format>
        <dc:type
           rdf:resource="http://purl.org/dc/dcmitype/StillImage" />
        <dc:title></dc:title>
      </cc:Work>
    </rdf:RDF>
  </metadata>
  <rect
     width="36.668537"
     height="27.425642"
     x="-0.53033197"
     y="-0.19835734"
     id="rect4091"
     style="fill:#ffffff;fill-opacity:1;stroke:none" />
  <path
     d="m 17.272691,15.105722 c -0.145841,-0.04623 -0.425097,-0.24367 -0.62057,-0.438764 -0.427915,-0.427088 -0.608449,-0.952993 -0.608449,-1.772444 0,-1.045766 0.390159,-1.808129 1.101618,-2.152541 0.4281,-0.20724 1.245799,-0.21466 1.684738,-0.01529 0.399444,0.181433 0.827901,0.687781 0.993954,1.17465 0.179064,0.525014 0.175124,1.472694 -0.0084,2.011536 -0.174903,0.513638 -0.724466,1.091628 -1.150379,1.209887 -0.367268,0.101976 -1.043159,0.09371 -1.392549,-0.01704 z"
     id="path4048"
     style="fill:#ffffff;stroke:none" />
  <path
     d="m 2.1213203,5.3322279 10.4550787,-0.075761 10.303556,17.2736081 10.53084,0 0,0"
     id="path4326"
     style="fill:none;stroke:#000000;stroke-width:1px;stroke-linecap:butt;stroke-linejoin:miter;stroke-opacity:1" />
</svg>
