<?xml version="1.0" encoding="UTF-8" standalone="no"?>
<!-- Created with Inkscape (http://www.inkscape.org/) -->

<svg
   xmlns:dc="http://purl.org/dc/elements/1.1/"
   xmlns:cc="http://creativecommons.org/ns#"
   xmlns:rdf="http://www.w3.org/1999/02/22-rdf-syntax-ns#"
   xmlns:svg="http://www.w3.org/2000/svg"
   xmlns="http://www.w3.org/2000/svg"
   version="1.1"
   width="36"
   height="27"
   id="svg2">
  <defs
     id="defs4">
    <clipPath
       id="clipPath3935">
      <rect
         width="33.375"
         height="27.125"
         x="363.375"
         y="527.36218"
         id="rect3937"
         style="fill:#000000;fill-opacity:0.52403846" />
    </clipPath>
  </defs>
  <metadata
     id="metadata7">
    <rdf:RDF>
      <cc:Work
         rdf:about="">
        <dc:format>image/svg+xml</dc:format>
        <dc:type
           rdf:resource="http://purl.org/dc/dcmitype/StillImage" />
        <dc:title></dc:title>
      </cc:Work>
    </rdf:RDF>
  </metadata>
  <rect
     width="35.607883"
     height="26.592266"
     x="0.2272843"
     y="0.25621137"
     id="rect3001"
     style="fill:#ffffff;fill-opacity:1;stroke:none" />
  <g
     transform="matrix(0.91801661,0,0,0.94829551,-336.43606,-498.95322)"
     id="layer1">
    <g
       transform="translate(5.8336313,-0.70710679)"
       clip-path="url(#clipPath3935)"
       id="g3928">
      <path
         d="m 392.625,541.17468 a 12.4375,12.4375 0 1 1 -24.875,0 12.4375,12.4375 0 1 1 24.875,0 z"
         id="path2985"
         style="fill:none;stroke:#000000;stroke-width:1.07177317px;stroke-linecap:butt;stroke-linejoin:miter;stroke-opacity:1" />
      <path
         d="m 387.625,528.23718 c 4.25,3.75 4.5,3.75 4.5,3.75 l 0,0"
         id="path3755"
         style="fill:none;stroke:#000000;stroke-width:1.07177317px;stroke-linecap:butt;stroke-linejoin:miter;stroke-opacity:1" />
      <path
         d="m 389.625,530.23718 -1.125,1.25 0,0"
         id="path3757"
         style="fill:none;stroke:#000000;stroke-width:1.07177317px;stroke-linecap:butt;stroke-linejoin:miter;stroke-opacity:1" />
      <path
         d="m 380,531.11218 0,10 5.875,1.625 0,0"
         id="path3759"
         style="fill:none;stroke:#000000;stroke-width:1.07177317px;stroke-linecap:butt;stroke-linejoin:miter;stroke-opacity:1" />
      <path
         d="m 345.25,518.86218 a 2,2 0 1 1 -4,0 2,2 0 1 1 4,0 z"
         transform="translate(36.875,22)"
         id="path3815"
         style="fill:#000000" />
    </g>
  </g>
</svg>
